<svg width="18" height="21" fill="none" xmlns="http://www.w3.org/2000/svg"><path d="m8.838.907.255.005c4.576.15 8.231 3.927 8.216 8.548v.102c-.052 2.757-1.431 5.47-3.72 7.893a21.131 21.131 0 0 1-3.756 3.102l.01-.008-.048.041c-.547.393-1.271.42-1.843.084l-.13-.084-.06-.047-.413-.279a20.76 20.76 0 0 1-4.533-4.256l-.317-.413A10.736 10.736 0 0 1 .31 9.434l.005-.285C.464 4.559 4.229.892 8.838.907Zm-.005 1.518-.24.003c-3.749.114-6.759 3.191-6.771 6.98l.019.356a9.203 9.203 0 0 0 1.864 4.915 19.251 19.251 0 0 0 4.903 4.604l.082.062c.068.06.17.06.238 0l.084-.063a19.598 19.598 0 0 0 3.483-2.876c2.047-2.166 3.257-4.547 3.301-6.858l-.003-.332c-.114-3.76-3.182-6.778-6.96-6.791Zm-.024 3.884a3.243 3.243 0 0 1 3.238 3.248 3.243 3.243 0 0 1-3.238 3.248A3.243 3.243 0 0 1 5.57 9.557a3.243 3.243 0 0 1 3.238-3.248Zm0 1.517c-.953 0-1.726.775-1.726 1.73 0 .957.773 1.731 1.726 1.731s1.725-.775 1.725-1.73c0-.956-.772-1.731-1.725-1.731Z" fill="#6D7D93"/></svg>