<svg width="33" height="33" fill="none" xmlns="http://www.w3.org/2000/svg"><path d="M16.683 1.77c8.184 0 14.806 6.623 14.806 14.795S24.867 31.37 16.683 31.37c-8.185 0-14.807-6.622-14.807-14.794S8.498 1.771 16.683 1.771Z" fill="#E74D89"/><path d="M16.683 32.426C7.928 32.426.81 25.32.81 16.577.81 7.822 7.928.717 16.683.717c8.755 0 15.873 7.105 15.873 15.848s-7.118 15.86-15.873 15.86Zm13.38-13.69c-.459-.15-4.191-1.253-8.445-.584 1.774 4.861 2.493 8.83 2.63 9.648 3.05-2.046 5.22-5.295 5.815-9.065Zm-8.085 10.317c-.199-1.19-.992-5.333-2.89-10.268a.23.23 0 0 1-.086.024c-7.652 2.667-10.392 7.962-10.64 8.458a13.505 13.505 0 0 0 8.32 2.852 13.263 13.263 0 0 0 5.296-1.066Zm-15.365-3.41c.31-.521 4.03-6.672 11.025-8.942.173-.062.36-.111.533-.16a35.259 35.259 0 0 0-1.104-2.295c-6.77 2.021-13.343 1.935-13.938 1.922 0 .137-.013.273-.013.41a13.55 13.55 0 0 0 3.497 9.064Zm-3.2-11.831c.608.013 6.189.037 12.538-1.65-2.245-3.992-4.675-7.34-5.022-7.824a13.579 13.579 0 0 0-7.515 9.474ZM13.509 3.42c.372.496 2.84 3.844 5.06 7.924 4.824-1.81 6.857-4.538 7.105-4.886a13.517 13.517 0 0 0-8.99-3.41c-1.092 0-2.158.137-3.175.372Zm13.666 4.6c-.285.385-2.555 3.3-7.565 5.346.31.644.62 1.302.905 1.959.1.236.199.471.298.694 4.514-.57 8.99.348 9.437.434a13.486 13.486 0 0 0-3.075-8.432Z" fill="#B2215A"/></svg>