<svg width="33" height="33" fill="none" xmlns="http://www.w3.org/2000/svg"><g clip-path="url(#a)"><path d="M32.81 16.907c0-8.836-7.164-16-16-16-8.837 0-16 7.164-16 16 0 7.986 5.85 14.606 13.5 15.806v-11.18h-4.063v-4.626h4.063v-3.525c0-4.01 2.388-6.225 6.043-6.225 1.75 0 3.582.313 3.582.313v3.937h-2.018c-1.987 0-2.607 1.234-2.607 2.499v3.001h4.437l-.71 4.625H19.31v11.18c7.649-1.2 13.5-7.819 13.5-15.805Z" fill="#1877F2"/><path d="m23.038 21.532.71-4.625H19.31v-3.001c0-1.266.62-2.499 2.607-2.499h2.018V7.47s-1.831-.313-3.582-.313c-3.655 0-6.043 2.215-6.043 6.225v3.525h-4.063v4.625h4.063v11.18a16.134 16.134 0 0 0 5 0v-11.18h3.728Z" fill="#fff"/></g><defs><clipPath id="a"><path fill="#fff" transform="translate(.81 .907)" d="M0 0h32v32H0z"/></clipPath></defs></svg>