<svg width="143" height="29" fill="none" xmlns="http://www.w3.org/2000/svg"><path d="M17.206 6.079 8.958 11.34l8.248 5.261-8.248 5.262-8.248-5.29 8.248-5.262L.71 6.08 8.958.817l8.248 5.262Zm-8.29 17.477 8.247-5.262 8.248 5.262-8.248 5.261-8.248-5.261Zm8.29-6.982 8.248-5.262-8.248-5.233L25.41.817l8.248 5.262-8.248 5.262 8.248 5.261-8.248 5.262-8.205-5.29ZM40.13 6.08h6.67c4.251 0 7.764 2.46 7.764 8.076v1.18c0 5.66-3.285 8.206-7.637 8.206H40.13V6.079Zm3.726 3.17v11.107h2.858c2.418 0 4.039-1.579 4.039-5.091v-.925c0-3.512-1.707-5.09-4.167-5.09h-2.73Zm12.684.17h2.987l.483 3.286c.569-2.233 2.02-3.427 4.65-3.427h.925v3.768h-1.536c-3.03 0-3.769 1.053-3.769 4.039v6.498h-3.683V9.421h-.057Zm9.784 7.367v-.398c0-4.735 3.029-7.324 7.153-7.324 4.21 0 7.153 2.589 7.153 7.324v.398c0 4.65-2.858 7.153-7.153 7.153-4.565-.043-7.153-2.489-7.153-7.153Zm10.537-.043v-.355c0-2.63-1.322-4.21-3.427-4.21-2.062 0-3.427 1.451-3.427 4.21v.355c0 2.546 1.323 3.996 3.427 3.996 2.105-.042 3.427-1.45 3.427-3.995Zm5.703-7.323h3.071l.356 2.673c.74-1.791 2.318-3.029 4.65-3.029 3.598 0 5.972 2.589 5.972 7.38v.399c0 4.65-2.63 7.11-5.972 7.11-2.233 0-3.769-1.01-4.522-2.63v7.152H82.52l.043-19.055Zm10.31 7.323v-.312c0-2.816-1.451-4.21-3.385-4.21-2.062 0-3.427 1.579-3.427 4.21v.27c0 2.503 1.323 4.081 3.384 4.081 2.12-.043 3.428-1.393 3.428-4.039Zm9.186 4.224-.313 2.588H98.59V4.686h3.598v7.238c.797-1.849 2.375-2.859 4.608-2.859 3.384.043 5.887 2.375 5.887 7.068v.44c0 4.694-2.375 7.381-5.973 7.381-2.375-.057-3.91-1.152-4.65-2.986Zm6.84-4.394v-.356c0-2.588-1.408-4.038-3.384-4.038-2.02 0-3.427 1.62-3.427 4.081v.313c0 2.63 1.365 4.166 3.384 4.166 2.162 0 3.427-1.35 3.427-4.166Zm5.361.213v-.398c0-4.735 3.029-7.324 7.153-7.324 4.209 0 7.153 2.589 7.153 7.324v.398c0 4.65-2.901 7.153-7.153 7.153-4.565-.043-7.153-2.489-7.153-7.153Zm10.566-.043v-.355c0-2.63-1.322-4.21-3.427-4.21-2.062 0-3.427 1.451-3.427 4.21v.355c0 2.546 1.322 3.996 3.427 3.996 2.119-.042 3.427-1.45 3.427-3.995Zm8.561-.526-4.963-6.797h4.252l2.858 4.252 2.901-4.252h4.209l-5.034 6.755 5.304 7.38h-4.166l-3.242-4.693-3.157 4.693h-4.352l5.39-7.338Z" fill="#6D7D93"/></svg>