<svg width="85" height="41" fill="none" xmlns="http://www.w3.org/2000/svg"><path d="M52.38 31.957c-4.72 3.484-11.56 5.334-17.454 5.334a31.58 31.58 0 0 1-21.316-8.14c-.44-.4-.047-.947.483-.637a42.898 42.898 0 0 0 21.333 5.667 42.386 42.386 0 0 0 16.27-3.334c.797-.333 1.467.527.687 1.104" fill="#6D7D93"/><path d="M54.343 29.717c.604.774-.666 3.957-1.24 5.38-.173.43.197.604.587.277 2.53-2.117 3.183-6.553 2.667-7.197-.517-.643-4.94-1.18-7.64.717-.417.29-.334.693.113.637 1.523-.18 4.907-.587 5.513.186ZM48.94 15.484a.457.457 0 0 0 .477.463h4.316l-4.96 7.124a2.23 2.23 0 0 0-.306 1.266v1.867c0 .273.3.58.59.43a9.503 9.503 0 0 1 8.73 0c.31.163.606-.15.606-.42v-1.967a.837.837 0 0 0-.436-.72 9.157 9.157 0 0 0-4.714-1l4.28-6.11c.397-.55.62-.896.62-1.16v-1.61a.46.46 0 0 0-.473-.466h-8.263a.457.457 0 0 0-.467.466v1.837ZM18.8 27.004a.471.471 0 0 0 .483-.463V19.7c.004-1.494-.073-3.55 1.74-3.55 1.814 0 1.547 2.116 1.547 3.553v6.84a.467.467 0 0 0 .45.46h2.523a.474.474 0 0 0 .484-.463V19.7c0-.734-.024-1.817.233-2.467a1.667 1.667 0 0 1 1.503-1.06c.727 0 1.29.243 1.477 1.113.12.514.073 1.874.073 2.414v6.843a.466.466 0 0 0 .45.46h2.51a.477.477 0 0 0 .487-.463V18.4c0-1.387.16-2.964-.637-4.047a3.713 3.713 0 0 0-6.38.977c-.706-1.627-1.69-2.387-3.263-2.387s-2.7.76-3.307 2.387h-.046v-1.667a.473.473 0 0 0-.46-.433h-2.334a.477.477 0 0 0-.486.463v12.887a.47.47 0 0 0 .45.423h2.513-.01Zm46.457-14.063c-3.637 0-5.667 3.123-5.667 7.143s2 7.193 5.667 7.193c3.52 0 5.75-3.123 5.75-7.06 0-4.066-2.02-7.276-5.75-7.276Zm0 11.666c-1.97 0-1.947-3.366-1.947-4.943 0-1.577.117-4.1 1.97-4.1.8 0 1.36.353 1.643 1.25.291 1.116.418 2.268.377 3.42 0 1.667-.09 4.383-2.043 4.383v-.01Zm10.586 2.397a.48.48 0 0 0 .49-.463v-6.947a5.76 5.76 0 0 1 .4-2.443 1.64 1.64 0 0 1 1.454-1.03c1.74 0 1.573 2.06 1.573 3.473v7a.47.47 0 0 0 .45.41h2.52a.477.477 0 0 0 .48-.407v-8.113c0-1.247 0-3-.667-4.017a3.297 3.297 0 0 0-2.933-1.52c-1.737 0-2.723.84-3.427 2.604h-.046v-1.977a.48.48 0 0 0-.447-.36h-2.333a.48.48 0 0 0-.48.42v12.91a.467.467 0 0 0 .45.46h2.516ZM46.83 24.641c-.46-.637-.95-1.15-.95-2.334v-3.91c0-1.666.117-3.186-1.107-4.333-.963-.913-2.563-1.247-3.783-1.247-2.393 0-5.063.894-5.623 3.85a.44.44 0 0 0 .376.524l2.437.266a.526.526 0 0 0 .433-.463c.214-1.02 1.064-1.51 2.024-1.51a1.667 1.667 0 0 1 1.41.667c.353.516.306 1.223.306 1.823v.333c-1.456.164-3.363.27-4.726.87a4.267 4.267 0 0 0-2.667 4.107c0 2.613 1.647 3.92 3.76 3.92 1.79 0 2.767-.423 4.147-1.827a6.1 6.1 0 0 0 1.44 1.667.52.52 0 0 0 .593-.057c.5-.45 1.413-1.243 1.927-1.666a.472.472 0 0 0 .003-.68Zm-4.477-3.797c0 .98.024 1.793-.47 2.667a2.04 2.04 0 0 1-1.74 1.14c-.966 0-1.53-.734-1.53-1.82 0-2.14 1.92-2.53 3.74-2.53v.543Zm-28.476 3.797c-.46-.637-.95-1.15-.95-2.334v-3.91c0-1.666.12-3.186-1.104-4.333-.946-.913-2.563-1.247-3.786-1.247-2.39 0-5.06.894-5.62 3.85a.44.44 0 0 0 .373.524l2.437.266a.537.537 0 0 0 .436-.463c.214-1.02 1.064-1.51 2.02-1.51a1.667 1.667 0 0 1 1.41.667c.354.516.307 1.223.307 1.823v.333c-1.457.164-3.36.27-4.727.87a4.267 4.267 0 0 0-2.666 4.107c0 2.613 1.646 3.92 3.763 3.92 1.787 0 2.763-.423 4.143-1.827a6.158 6.158 0 0 0 1.44 1.667.52.52 0 0 0 .594-.057c.5-.45 1.413-1.243 1.926-1.666a.47.47 0 0 0 .004-.68ZM9.4 20.844c0 .98.023 1.793-.47 2.667a2.04 2.04 0 0 1-1.74 1.14c-.963 0-1.53-.734-1.53-1.82 0-2.14 1.923-2.53 3.74-2.53v.543Z" fill="#6D7D93"/></svg>