<svg width="98" height="29" fill="none" xmlns="http://www.w3.org/2000/svg"><path fill-rule="evenodd" clip-rule="evenodd" d="M65.307 10.403c3.815 0 7.158 2.94 7.158 6.914-.001 3.918-3.085 6.914-6.67 6.914-1.585 0-2.696-.463-3.766-1.511v6.097h-3.21V17.523c0-4.225 3.056-7.12 6.488-7.12Zm-1.512-8.77a2.798 2.798 0 0 1 4.774 1.988c-.004.235-.037.47-.1.697l8.846 6.89a7.034 7.034 0 0 1 3.345-1.472V6.51a2.484 2.484 0 0 1-1.432-2.239v-.074a2.484 2.484 0 0 1 2.483-2.483h.074a2.484 2.484 0 0 1 2.484 2.483v.074a2.484 2.484 0 0 1-1.432 2.24v3.225a7.067 7.067 0 1 1-5.372 12.587l-2.62 2.622c.068.214.104.437.107.662a2.298 2.298 0 1 1-2.3-2.3c.225.003.448.04.662.108l2.65-2.65a7.055 7.055 0 0 1-.108-7.948l-8.71-6.778a2.768 2.768 0 0 1-1.379.375 2.798 2.798 0 0 1-1.972-4.78ZM33.837 5.992v6.09c1.071-1.051 2.18-1.512 3.767-1.512 3.585.002 6.668 2.998 6.668 6.916 0 3.967-3.35 6.914-7.158 6.914-3.433 0-6.487-2.896-6.487-7.12V5.99h3.21ZM19.81 10.476v7.925a2.796 2.796 0 1 0 5.592 0v-7.925h3.194v7.925a5.995 5.995 0 1 1-11.991 0v-7.925h3.205Zm74.275-3.209v3.714h2.945v2.815h-2.945v5.556c0 1.254.539 2.074 2.433 2.074.36-.003.77-.028 1.127-.053l-.793 2.92a6.69 6.69 0 0 1-1.282.102c-2.738 0-4.735-1.459-4.735-4.353V8.726l3.25-1.459ZM51.612 5.88c1.74 0 3.866.98 4.914 2.397l-2.099 2.475c-.82-.877-2.073-1.599-3.022-1.599-1.177 0-2.252.515-2.252 2.14-.005 3.015 7.652.854 7.652 7.808 0 3.223-2.657 5.284-5.962 5.284-2.2 0-4.039-.93-5.53-2.758l2.33-2.423c.871.98 1.486 1.907 3.382 1.907 1.201 0 2.251-.955 2.251-2.036 0-3.506-7.656-1.518-7.656-7.782 0-3.376 2.515-5.413 5.992-5.413Zm-47.524 0v7.75h7.12V5.88h3.38v18.501h-3.38v-7.499H4.088v7.5H.71V5.88h3.378Zm33.496 8.002a3.643 3.643 0 1 0 0 7.286 3.643 3.643 0 0 0 0-7.286Zm28.198-.248a3.643 3.643 0 1 0 0 7.286 3.643 3.643 0 0 0 0-7.286Zm15.969-.54a3.626 3.626 0 1 0 0 7.25 3.626 3.626 0 0 0 0-7.25Z" fill="#6D7D93"/></svg>