<svg width="95" height="25" fill="none" xmlns="http://www.w3.org/2000/svg"><path fill-rule="evenodd" clip-rule="evenodd" d="m30.946 19.659 1.174-2.725c1.268.943 2.953 1.438 4.622 1.438 1.225 0 2.003-.472 2.003-1.194-.02-2.007-7.364-.437-7.421-5.469-.02-2.56 2.253-4.526 5.469-4.526 1.913 0 3.83.472 5.186 1.55l-1.093 2.783c-1.25-.797-2.802-1.368-4.282-1.368-.998 0-1.663.478-1.663 1.085.019 1.967 7.42.892 7.497 5.7 0 2.613-2.217 4.446-5.395 4.446-2.33 0-4.47-.546-6.095-1.72h-.002Zm45.048-3.71a3.386 3.386 0 1 1 0-3.335l3.239-1.801a7.106 7.106 0 1 0 0 6.932l-3.24-1.797ZM44.063 1.288h4.057v19.827h-4.057V1.289Zm36.758 0v19.827h4.057v-5.94l4.808 5.94h5.187l-6.117-7.062 5.66-6.589h-4.961l-4.584 5.47V1.288h-4.05ZM60.16 15.987a3.739 3.739 0 0 1-3.158 1.682 3.388 3.388 0 0 1 0-6.776c1.363 0 2.574.755 3.158 1.742v3.352Zm0-8.522v1.608c-.658-1.117-2.309-1.894-4.031-1.894-3.56 0-6.365 3.143-6.365 7.08 0 3.943 2.805 7.12 6.365 7.12 1.72 0 3.373-.773 4.031-1.89v1.603h4.057V7.465H60.16ZM5.89 15.967a2.5 2.5 0 1 1-2.497-2.5H5.89v2.5Zm1.251 0a2.5 2.5 0 1 1 4.998 0v6.247a2.5 2.5 0 0 1-4.998 0v-6.246Zm2.5-10.04a2.5 2.5 0 1 1 2.502-2.497v2.498H9.641Zm0 1.275a2.5 2.5 0 1 1 0 4.998H3.376a2.5 2.5 0 1 1 0-4.998H9.64ZM19.657 9.7a2.5 2.5 0 1 1 2.498 2.5h-2.496V9.7h-.002Zm-1.25 0a2.499 2.499 0 1 1-4.998 0V3.43a2.5 2.5 0 1 1 4.997 0V9.7ZM15.91 19.716a2.5 2.5 0 1 1-2.5 2.498v-2.498h2.5Zm0-1.25a2.5 2.5 0 1 1 0-4.998h6.27a2.5 2.5 0 0 1 0 4.997h-6.27Z" fill="#6D7D93"/></svg>