<svg width="106" height="31" fill="none" xmlns="http://www.w3.org/2000/svg"><path fill-rule="evenodd" clip-rule="evenodd" d="M36.64 17.435c-.89-.493-1.359-.891-1.359-1.453 0-.727.633-1.172 1.641-1.172 1.172 0 2.203.492 2.203.492l.82-2.508s-.75-.586-2.976-.586c-3.094 0-5.25 1.781-5.25 4.266 0 1.406 1.008 2.484 2.344 3.258 1.078.609 1.453 1.054 1.453 1.687 0 .68-.54 1.219-1.547 1.219-1.5 0-2.906-.774-2.906-.774l-.868 2.508s1.313.867 3.493.867c3.187 0 5.46-1.57 5.46-4.383.047-1.546-1.124-2.625-2.507-3.421Zm12.704-5.274c-1.57 0-2.79.75-3.75 1.875l-.047-.023 1.36-7.125h-3.54l-3.445 18.117h3.54l1.17-6.188c.47-2.343 1.665-3.773 2.79-3.773.797 0 1.102.539 1.102 1.313a7.15 7.15 0 0 1-.165 1.57l-1.335 7.101h3.539l1.382-7.312c.164-.774.258-1.688.258-2.32.024-2.04-1.031-3.235-2.86-3.235Zm10.898 0c-4.265 0-7.101 3.844-7.101 8.133 0 2.742 1.687 4.969 4.875 4.969 4.195 0 7.008-3.75 7.008-8.133.023-2.555-1.454-4.969-4.782-4.969Zm-1.734 10.36c-1.219 0-1.711-1.032-1.711-2.32 0-2.04 1.055-5.345 2.977-5.345 1.265 0 1.664 1.079 1.664 2.133 0 2.203-1.055 5.531-2.93 5.531Zm15.61-10.36c-2.391 0-3.75 2.11-3.75 2.11h-.048l.211-1.899h-3.14c-.164 1.29-.446 3.235-.727 4.711l-2.46 12.984h3.538l.985-5.25h.07s.727.47 2.086.47c4.172 0 6.89-4.267 6.89-8.579 0-2.414-1.054-4.547-3.656-4.547Zm-3.376 10.43c-.914 0-1.453-.516-1.453-.516l.586-3.305c.422-2.203 1.57-3.68 2.79-3.68 1.077 0 1.405 1.009 1.405 1.946 0 2.274-1.359 5.555-3.328 5.555ZM82.836 7.05c-1.125 0-2.039.891-2.039 2.063 0 1.055.656 1.781 1.664 1.781h.047c1.102 0 2.063-.75 2.086-2.062.023-1.031-.68-1.781-1.758-1.781ZM77.867 25.005h3.563l2.414-12.563h-3.586l-2.39 12.563ZM92.844 12.396h-2.461l.117-.586c.211-1.22.914-2.297 2.11-2.297.632 0 1.124.187 1.124.187l.704-2.765s-.61-.305-1.922-.305c-1.266 0-2.508.351-3.469 1.172-1.219 1.031-1.781 2.508-2.063 4.008l-.093.585h-1.64l-.517 2.672h1.641L84.5 24.982h3.54l1.874-9.915h2.438l.492-2.671Zm8.531.046s-2.226 5.578-3.21 8.625h-.048c-.07-.984-.867-8.625-.867-8.625h-3.726l2.132 11.532c.047.258.024.421-.07.586a6.148 6.148 0 0 1-1.922 2.132c-.656.493-1.406.797-1.992 1.008l.984 3c.727-.164 2.203-.75 3.47-1.922 1.616-1.523 3.116-3.843 4.64-7.03l4.336-9.306h-3.727ZM17.352 29.95l8.765-1.898S22.953 6.653 22.93 6.512a.273.273 0 0 0-.258-.234c-.117 0-2.344-.164-2.344-.164s-1.547-1.547-1.734-1.71c-.047-.048-.094-.071-.14-.094l-1.102 25.64Zm.726-25.687c-.023 0-.07.023-.093.023-.024 0-.352.094-.868.258-.515-1.5-1.43-2.883-3.047-2.883h-.14c-.469-.586-1.031-.844-1.524-.844-3.773 0-5.578 4.711-6.14 7.102-1.453.445-2.508.773-2.625.82-.82.258-.844.281-.938 1.055C2.61 10.356.477 26.88.477 26.88l16.476 3.094 1.125-25.711ZM13.79 5.41v.164c-.914.281-1.922.586-2.906.89.562-2.155 1.617-3.21 2.531-3.609.235.61.375 1.43.375 2.555Zm-1.5-3.586c.164 0 .328.047.492.164-1.195.563-2.507 1.992-3.047 4.852a79.31 79.31 0 0 1-2.296.703c.632-2.18 2.156-5.719 4.851-5.719Zm.656 12.727s-.984-.516-2.156-.516c-1.758 0-1.828 1.102-1.828 1.383 0 1.5 3.938 2.086 3.938 5.625 0 2.789-1.758 4.57-4.149 4.57-2.86 0-4.312-1.781-4.312-1.781l.773-2.531s1.5 1.289 2.766 1.289c.82 0 1.172-.656 1.172-1.125 0-1.969-3.235-2.063-3.235-5.297 0-2.719 1.946-5.367 5.906-5.367 1.524 0 2.274.445 2.274.445l-1.149 3.305Zm1.5-11.86c.844.094 1.383 1.055 1.735 2.133-.422.14-.89.281-1.406.446v-.305c0-.914-.118-1.664-.329-2.274Z" fill="#6D7D93"/></svg>