<svg width="143" height="33" fill="none" xmlns="http://www.w3.org/2000/svg"><path fill-rule="evenodd" clip-rule="evenodd" d="M.31 16.818a3.956 3.956 0 1 1 7.912 0 3.956 3.956 0 0 1-7.912 0Zm27.786 3.96a3.958 3.958 0 1 1 3.957-3.96 3.957 3.957 0 0 1-3.957 3.956v.004Zm0-19.794a15.826 15.826 0 0 0-15.823 15.834A15.83 15.83 0 0 0 28.096 32.65a15.829 15.829 0 0 0 15.82-15.833A15.827 15.827 0 0 0 28.096.984Zm113.081 14.607c.25 0 .4-.11.4-.313 0-.187-.1-.307-.38-.307h-.26v.62h.243-.003Zm-.62-.933h.703c.39 0 .723.156.723.6 0 .223-.14.436-.343.51l.427.766h-.424l-.323-.646h-.38v.65h-.38v-1.88h-.003Zm2.046.963c0-.87-.6-1.493-1.38-1.493-.776 0-1.366.623-1.366 1.493 0 .88.59 1.48 1.366 1.48.777 0 1.38-.6 1.38-1.48Zm-3.12 0c0-1.083.787-1.827 1.74-1.827.964 0 1.75.744 1.75 1.827s-.786 1.823-1.75 1.823c-.953 0-1.74-.74-1.74-1.823Zm-11.606 7.407c.233 0 .433-.2.433-.434v-1.586c0-.234-.2-.434-.433-.434h-.067c-.193 0-.39-.19-.39-.383v-9.42c0-.213-.213-.43-.427-.43h-1.583c-.217 0-.43.217-.43.433v10.43l.007.274a1.667 1.667 0 0 0 1.553 1.55h1.337Zm-69.614-10.2c2.153 0 3.967 1.826 3.967 3.99a3.958 3.958 0 1 1-7.917 0c0-2.2 1.773-3.987 3.95-3.987v-.003Zm0-2.51a6.483 6.483 0 0 0-6.453 6.5c0 3.623 2.833 6.466 6.456 6.466a6.4 6.4 0 0 0 6.477-6.466c0-3.584-2.907-6.5-6.477-6.5h-.003Zm51.53 10.133c-.116.333-.82.957-1.62.957-.84 0-1.31-.507-1.31-1.267 0-.803.567-1.293 1.6-1.293.724 0 1.33.273 1.33.273v1.333-.003Zm-1.053-6.663c-1.467 0-2.893.37-3.087.45-.196.056-.37.213-.293.546l.197 1.017c.036.273.213.487.506.39.527-.157 1.717-.333 2.54-.333.957 0 1.287.55 1.247 1.7 0 0-.82-.254-1.737-.254-2.283 0-3.593 1.234-3.593 2.834 0 1.933 1.25 3.09 3.047 3.09a3.964 3.964 0 0 0 2.833-1.134v.484c0 .233.193.433.427.433h.88c.233 0 .43-.193.43-.43v-4.863c0-2.46-.587-3.927-3.4-3.927l.003-.003Zm-16.397 0c-1.727 0-2.567.93-2.9 1.3v-.67c0-.234-.2-.434-.433-.434h-1.02a.433.433 0 0 0-.43.434v8.166a.45.45 0 0 0 .43.434h1.443c.433 0 .567-.1.567-.434v-5.163a1.986 1.986 0 0 1 1.953-1.407c1.093 0 1.563.724 1.563 1.897v4.67c0 .233.194.433.43.433h1.58c.217 0 .434-.2.434-.433v-4.67c0-2.19-.747-4.123-3.617-4.123Zm-21.5 7.21a3.568 3.568 0 0 1-1.873-.507v-3.227a2.067 2.067 0 0 1 1.99-1.25c1.406 0 2.13 1.234 2.13 2.5 0 1.274-.764 2.484-2.247 2.484Zm.45-7.21c-1.857 0-2.883 1.266-2.947 1.346v-.72a.436.436 0 0 0-.43-.433h-.96c-.233 0-.43.2-.43.433v11.837a.45.45 0 0 0 .434.433h1.58c.213 0 .43-.216.43-.433v-3.4a6.7 6.7 0 0 0 2.166.373c2.697 0 4.474-2.073 4.474-4.71 0-2.736-1.857-4.73-4.317-4.73v.004Zm64.4 3.576c-.04-.88-.743-1.566-1.74-1.566-1.093 0-1.793.666-1.913 1.566h3.653Zm-1.683-3.58c2.343 0 4.14 1.74 4.14 4.18 0 .137-.02.45-.04.587a.458.458 0 0 1-.43.41h-5.78c.02 1.113.94 2.093 2.247 2.093.9 0 1.523-.333 1.933-.666.213-.174.45-.194.587 0l.76 1.016c.156.177.176.39-.04.587a5.077 5.077 0 0 1-3.357 1.233c-2.697 0-4.567-2.153-4.567-4.733 0-2.537 1.87-4.707 4.547-4.707Zm-15.283 7.21a2.065 2.065 0 0 1-1.99-1.25v-3.223s.74-.51 1.873-.51c1.483 0 2.247 1.213 2.247 2.483 0 1.267-.724 2.5-2.13 2.5Zm.213-7.21c-.897 0-1.793.217-2.203.39v-3.433c0-.217-.2-.433-.434-.433h-1.58c-.213 0-.43.216-.43.433v11.84c0 .233.217.433.434.433h.68c.013 0 .026 0 .04-.006h.183a.436.436 0 0 0 .433-.43v-.667l.007-.033s1.033 1.35 3.007 1.35c2.463 0 4.24-2.15 4.24-4.734 0-2.633-1.7-4.706-4.377-4.706v-.004Zm-13.813-3.476h-9.184a.368.368 0 0 0-.37.366v1.607c0 .193.157.37.37.37h3.313v9.987c0 .193.177.37.37.37h1.817a.386.386 0 0 0 .374-.37V12.65h3.313a.369.369 0 0 0 .367-.37v-1.603a.367.367 0 0 0-.367-.37h-.003ZM83.26 17.36c-.04-.88-.744-1.567-1.737-1.567-1.093 0-1.8.667-1.913 1.567h3.65Zm-1.68-3.577c2.343 0 4.14 1.74 4.14 4.18 0 .137-.02.45-.04.587a.458.458 0 0 1-.427.41h-5.777c.017 1.113.934 2.093 2.244 2.093.9 0 1.523-.333 1.933-.666.217-.174.45-.194.587 0l.76 1.016c.156.177.176.39-.037.587a5.092 5.092 0 0 1-3.36 1.233c-2.693 0-4.567-2.153-4.567-4.733 0-2.537 1.874-4.707 4.547-4.707h-.003Z" fill="#6D7D93"/></svg>