<svg width="28" height="32" fill="none" xmlns="http://www.w3.org/2000/svg"><path d="M23.436 2.397C21.96.716 19.291-.006 15.876-.006H5.967A1.42 1.42 0 0 0 4.566 1.19L.439 27.359a.85.85 0 0 0 .841.983h6.118l1.536-9.745-.047.305a1.414 1.414 0 0 1 1.396-1.197h2.907c5.711 0 10.183-2.32 11.489-9.03.039-.199.073-.392.102-.58-.165-.088-.165-.088 0 0 .388-2.48-.003-4.169-1.345-5.698Z" fill="#27346A"/><path d="M11.275 7.201c.167-.08.35-.12.535-.12h7.77c.92 0 1.777.06 2.561.185.22.035.438.077.655.126.307.067.611.15.91.248.386.129.745.279 1.075.454.388-2.48-.003-4.168-1.345-5.696C21.96.714 19.291-.007 15.876-.007h-9.91c-.697 0-1.291.508-1.4 1.197L.439 27.358a.85.85 0 0 0 .84.983h6.119l3.187-20.214a1.241 1.241 0 0 1 .69-.926Z" fill="#27346A"/><path d="M24.68 8.675c-1.306 6.71-5.778 9.03-11.49 9.03h-2.907c-.698 0-1.287.508-1.396 1.197L6.976 31.019a.745.745 0 0 0 .735.861h5.157a1.24 1.24 0 0 0 1.225-1.047l.05-.263.972-6.16.063-.34a1.24 1.24 0 0 1 1.225-1.047h.772c4.995 0 8.907-2.03 10.05-7.9.477-2.452.23-4.5-1.032-5.939a4.927 4.927 0 0 0-1.412-1.09c-.03.19-.062.383-.101.581Z" fill="#2790C3"/><path d="M23.413 7.55a9.517 9.517 0 0 0-.616-.159c-.217-.047-.435-.089-.655-.124a16.122 16.122 0 0 0-2.563-.187h-7.768a1.238 1.238 0 0 0-1.225 1.048l-1.65 10.469-.049.305a1.413 1.413 0 0 1 1.396-1.197h2.908c5.711 0 10.183-2.32 11.49-9.03.038-.199.07-.391.1-.58a7.057 7.057 0 0 0-1.368-.546Z" fill="#1F264F"/></svg>