<svg width="32" height="33" fill="none" xmlns="http://www.w3.org/2000/svg"><g clip-path="url(#a)"><path d="M6.54 21.753a3.35 3.35 0 0 1-3.352 3.352 3.35 3.35 0 0 1-3.353-3.352A3.35 3.35 0 0 1 3.188 18.4H6.54v3.353Zm1.676 0A3.35 3.35 0 0 1 11.57 18.4a3.35 3.35 0 0 1 3.352 3.353v8.38a3.35 3.35 0 0 1-3.352 3.353 3.35 3.35 0 0 1-3.353-3.352v-8.381Z" fill="#E01E5A"/><path d="M11.568 8.293A3.35 3.35 0 0 1 8.216 4.94a3.35 3.35 0 0 1 3.352-3.352 3.35 3.35 0 0 1 3.353 3.352v3.353h-3.353Zm0 1.701a3.35 3.35 0 0 1 3.353 3.353 3.35 3.35 0 0 1-3.353 3.352H3.162A3.35 3.35 0 0 1-.19 13.346a3.35 3.35 0 0 1 3.352-3.352h8.406Z" fill="#36C5F0"/><path d="M25.003 13.347a3.35 3.35 0 0 1 3.352-3.353 3.35 3.35 0 0 1 3.353 3.353 3.35 3.35 0 0 1-3.353 3.352h-3.352v-3.352Zm-1.676 0a3.35 3.35 0 0 1-3.353 3.352 3.35 3.35 0 0 1-3.352-3.353V4.94a3.35 3.35 0 0 1 3.352-3.352 3.35 3.35 0 0 1 3.353 3.352v8.407Z" fill="#2EB67D"/><path d="M19.974 26.781a3.35 3.35 0 0 1 3.353 3.353 3.35 3.35 0 0 1-3.353 3.352 3.35 3.35 0 0 1-3.352-3.352V26.78h3.352Zm0-1.676a3.35 3.35 0 0 1-3.352-3.352 3.35 3.35 0 0 1 3.353-3.353h8.406a3.35 3.35 0 0 1 3.352 3.353 3.35 3.35 0 0 1-3.352 3.352h-8.407Z" fill="#ECB22E"/></g><defs><clipPath id="a"><path fill="#fff" transform="translate(0 .75)" d="M0 0h32v32H0z"/></clipPath></defs></svg>