<svg width="33" height="33" fill="none" xmlns="http://www.w3.org/2000/svg"><path d="M16.469.96C7.659.96.518 8.101.518 16.91c0 8.81 7.141 15.951 15.95 15.951 8.811 0 15.952-7.14 15.952-15.95C32.42 8.102 25.28.96 16.469.96Zm7.315 23.006a.994.994 0 0 1-1.368.33c-3.745-2.288-8.46-2.806-14.012-1.538a.994.994 0 0 1-.442-1.939c6.076-1.389 11.288-.79 15.492 1.779.469.288.617.9.33 1.368Zm1.952-4.344c-.36.586-1.126.77-1.71.41-4.288-2.636-10.824-3.399-15.895-1.86a1.245 1.245 0 0 1-1.552-.828 1.245 1.245 0 0 1 .83-1.551c5.792-1.758 12.994-.906 17.918 2.12.584.36.77 1.125.41 1.709Zm.168-4.523c-5.141-3.053-13.623-3.334-18.531-1.844a1.492 1.492 0 1 1-.867-2.856c5.635-1.71 15.002-1.38 20.92 2.134a1.491 1.491 0 1 1-1.523 2.566Z" fill="#1ED760"/></svg>