<svg width="24" height="25" fill="none" xmlns="http://www.w3.org/2000/svg"><path d="M5.117 9.406c0-2.146 1.757-3.885 3.923-3.885 2.167 0 3.924 1.74 3.924 3.885 0 2.146-1.757 3.886-3.924 3.886-2.166 0-3.923-1.74-3.923-3.886ZM6.56 15.047l.165-.026a14.832 14.832 0 0 1 4.63 0l.165.026c2.161.341 3.751 2.188 3.751 4.355 0 1.17-.957 2.119-2.139 2.119H4.949a2.129 2.129 0 0 1-2.138-2.119c0-2.167 1.59-4.014 3.75-4.355ZM14.579 5.52a.69.69 0 0 0-.692.686c0 .379.31.686.692.686 1.402 0 2.538 1.126 2.538 2.514 0 1.389-1.136 2.514-2.538 2.514a.69.69 0 0 0-.692.686c0 .379.31.686.692.686 2.167 0 3.923-1.74 3.923-3.886s-1.756-3.885-3.923-3.885ZM15.725 15.012a.69.69 0 0 0-.693.685c0 .38.31.686.693.686h.893c.075 0 .149.006.222.018a3.048 3.048 0 0 1 2.585 3 .75.75 0 0 1-.754.748h-1.886a.69.69 0 0 0-.692.685c0 .38.31.686.692.686h1.886a2.129 2.129 0 0 0 2.139-2.118c0-2.168-1.59-4.014-3.752-4.356a2.822 2.822 0 0 0-.44-.034h-.893Z" fill="#1552F0"/></svg>